<svg width="1440" height="699" viewBox="0 0 1440 699" fill="none" xmlns="http://www.w3.org/2000/svg">
<rect width="1440" height="699" fill="#F3E5F4"/>
<path d="M1183.5 406.5C1095.5 496 1045.12 682.408 979 699H1439.5V242C1306.5 242 1271.5 317 1183.5 406.5Z" fill="#EFD8EA"/>
<path d="M1440 359C1286.5 420 1287.5 665 1188 698.5H1440V359Z" fill="#E0CCDE"/>
<g filter="url(#filter0_d_106_124)">
<path d="M1342 148C1345.87 148 1349 143.075 1349 137C1349 130.925 1345.87 126 1342 126C1338.13 126 1335 130.925 1335 137C1335 143.075 1338.13 148 1342 148Z" fill="#FBFBFB"/>
<path d="M1342 178C1345.87 178 1349 173.075 1349 167C1349 160.925 1345.87 156 1342 156C1338.13 156 1335 160.925 1335 167C1335 173.075 1338.13 178 1342 178Z" fill="#FBFBFB"/>
<path d="M1327 159C1333.08 159 1338 155.866 1338 152C1338 148.134 1333.08 145 1327 145C1320.92 145 1316 148.134 1316 152C1316 155.866 1320.92 159 1327 159Z" fill="#FBFBFB"/>
<path d="M1357 159C1363.08 159 1368 155.866 1368 152C1368 148.134 1363.08 145 1357 145C1350.92 145 1346 148.134 1346 152C1346 155.866 1350.92 159 1357 159Z" fill="#FBFBFB"/>
<path d="M1338.07 148.071C1340.8 145.337 1339.85 139.956 1335.95 136.05C1332.04 132.145 1326.66 131.195 1323.93 133.929C1321.2 136.663 1322.14 142.045 1326.05 145.95C1329.96 149.855 1335.34 150.805 1338.07 148.071Z" fill="#FBFBFB"/>
<path d="M1345.93 148.071C1348.66 150.805 1354.04 149.855 1357.95 145.95C1361.86 142.045 1362.8 136.663 1360.07 133.929C1357.34 131.195 1351.96 132.145 1348.05 136.05C1344.15 139.955 1343.2 145.337 1345.93 148.071Z" fill="#FBFBFB"/>
<path d="M1323.93 170.071C1326.66 172.805 1332.04 171.855 1335.95 167.95C1339.86 164.045 1340.8 158.663 1338.07 155.929C1335.34 153.195 1329.96 154.145 1326.05 158.05C1322.15 161.955 1321.2 167.337 1323.93 170.071Z" fill="#FBFBFB"/>
<path d="M1360.07 170.071C1362.8 167.337 1361.85 161.956 1357.95 158.05C1354.04 154.145 1348.66 153.195 1345.93 155.929C1343.2 158.663 1344.14 164.045 1348.05 167.95C1351.96 171.855 1357.34 172.805 1360.07 170.071Z" fill="#FBFBFB"/>
<path d="M1342 158C1345.31 158 1348 155.314 1348 152C1348 148.686 1345.31 146 1342 146C1338.69 146 1336 148.686 1336 152C1336 155.314 1338.69 158 1342 158Z" fill="#9E87B5"/>
</g>
<g filter="url(#filter1_d_106_124)">
<path d="M88 99.3333C92.5103 99.3333 96.1666 93.5877 96.1666 86.5C96.1666 79.4124 92.5103 73.6667 88 73.6667C83.4897 73.6667 79.8333 79.4124 79.8333 86.5C79.8333 93.5877 83.4897 99.3333 88 99.3333Z" fill="#FBFBFB"/>
<path d="M88 134.333C92.5103 134.333 96.1666 128.588 96.1666 121.5C96.1666 114.412 92.5103 108.667 88 108.667C83.4897 108.667 79.8333 114.412 79.8333 121.5C79.8333 128.588 83.4897 134.333 88 134.333Z" fill="#FBFBFB"/>
<path d="M70.5 112.167C77.5876 112.167 83.3333 108.51 83.3333 104C83.3333 99.4897 77.5876 95.8333 70.5 95.8333C63.4123 95.8333 57.6667 99.4897 57.6667 104C57.6667 108.51 63.4123 112.167 70.5 112.167Z" fill="#FBFBFB"/>
<path d="M105.5 112.167C112.588 112.167 118.333 108.51 118.333 104C118.333 99.4897 112.588 95.8333 105.5 95.8333C98.4123 95.8333 92.6667 99.4897 92.6667 104C92.6667 108.51 98.4123 112.167 105.5 112.167Z" fill="#FBFBFB"/>
<path d="M83.4162 99.4163C86.6055 96.227 85.4975 89.9481 80.9414 85.392C76.3852 80.8359 70.1064 79.7278 66.9171 82.9171C63.7278 86.1064 64.8358 92.3853 69.3919 96.9414C73.9481 101.498 80.2269 102.606 83.4162 99.4163Z" fill="#FBFBFB"/>
<path d="M92.5837 99.4162C95.773 102.606 102.052 101.497 106.608 96.9414C111.164 92.3853 112.272 86.1064 109.083 82.9171C105.894 79.7278 99.6147 80.8358 95.0586 85.392C90.5025 89.9481 89.3945 96.227 92.5837 99.4162Z" fill="#FBFBFB"/>
<path d="M66.9171 125.083C70.1064 128.272 76.3853 127.164 80.9414 122.608C85.4975 118.052 86.6055 111.773 83.4162 108.584C80.227 105.394 73.9481 106.503 69.392 111.059C64.8358 115.615 63.7278 121.894 66.9171 125.083Z" fill="#FBFBFB"/>
<path d="M109.083 125.083C112.272 121.894 111.164 115.615 106.608 111.059C102.052 106.503 95.773 105.394 92.5838 108.584C89.3945 111.773 90.5025 118.052 95.0586 122.608C99.6147 127.164 105.894 128.272 109.083 125.083Z" fill="#FBFBFB"/>
<path d="M88 111C91.866 111 95 107.866 95 104C95 100.134 91.866 97 88 97C84.134 97 81 100.134 81 104C81 107.866 84.134 111 88 111Z" fill="#9E87B5"/>
</g>
<g filter="url(#filter2_d_106_124)">
<path fill-rule="evenodd" clip-rule="evenodd" d="M949.42 105.618C960.646 94.0047 978.216 92.048 991.072 99.1074C1003.04 105.678 1013.97 114.034 1025.45 121.46C1029.77 124.25 1034.2 126.97 1038.86 129.118C1044.27 131.608 1048.65 128.112 1052.68 125.375C1062.39 118.78 1071.55 111.378 1081.48 105.126C1090.52 99.4312 1100.14 94.5573 1111.6 95.3008C1122.73 96.0223 1131.53 100.717 1138.12 109.392C1147.07 121.163 1150.28 135.236 1154.73 148.842C1156.79 155.124 1159 161.616 1162.67 167.023C1164.34 169.496 1169.68 170.447 1173.41 170.582C1185.34 171.015 1197.31 170.316 1209.23 170.869C1219.79 171.359 1230.15 173.122 1239.28 179.261C1251.83 187.704 1256.07 202.329 1253.26 214.628C1250.17 228.174 1245.41 241.361 1241.22 254.659C1237.08 267.813 1238.52 272.381 1249.8 280.302C1259.98 287.447 1270.85 293.818 1280.23 301.853C1295.93 315.297 1302.71 337.126 1286.21 356.417C1276.29 368.026 1262.89 374.958 1251.06 384.008C1246.93 387.171 1242.52 390.455 1239.72 394.632C1238.21 396.878 1239.22 401.313 1240.17 404.451C1243.99 417.122 1248.88 429.516 1252.12 442.316C1254.81 452.913 1255.74 463.772 1249.63 474.167C1243.92 483.868 1235.56 489.501 1224.69 491.689C1210.91 494.463 1197.05 494.529 1183.02 493.087C1177.1 492.478 1170.76 493.74 1164.93 495.312C1162.84 495.875 1161.21 499.668 1160.24 502.295C1156.7 511.951 1153.57 521.752 1150.2 531.471C1146 543.585 1140.7 555.071 1129.92 563.688C1111.85 574.232 1095.8 568.936 1080.45 558.66C1072.17 553.115 1064.32 546.951 1056.03 541.409C1040.06 530.724 1041.25 533.872 1028.46 541.496C1022.36 545.127 1017.35 550.445 1011.5 554.517C999.98 562.529 987.472 568.845 973.057 569.136C961.804 569.362 952.934 563.951 946.195 555.001C937.273 543.154 934.105 529.133 929.677 515.527C927.631 509.24 925.345 502.789 921.707 497.344C920.131 494.984 914.895 494.174 911.272 494.049C899.702 493.649 888.081 494.387 876.533 493.759C865.663 493.168 854.895 491.901 845.32 485.49C832.609 476.98 828.49 462.28 831.069 450.235C833.755 437.69 838.426 425.558 842.03 413.189C843.586 407.848 844.818 402.397 845.782 396.926C845.984 395.774 844.667 393.952 843.537 393.058C835.992 387.083 828.356 381.216 820.658 375.43C810.571 367.849 799.979 361.028 793.44 349.62C785.975 336.597 788.143 320.461 797.127 309.376C807.083 297.092 821.001 289.827 833.415 280.627C837.597 277.528 841.953 274.155 844.741 269.962C846.232 267.718 845.15 263.292 844.202 260.146C840.384 247.476 835.675 235.046 832.249 222.283C829.483 211.975 828.86 201.413 834.257 191.353C840.683 179.375 851.365 173.214 864.48 172.041C876.513 170.965 888.728 171.987 900.847 171.612C907.465 171.408 914.051 170.222 921.988 169.328C926.322 156.707 930.632 143.658 935.3 130.733C938.582 121.647 942.404 112.877 949.42 105.618Z" fill="#9E87B5"/>
</g>
<g filter="url(#filter3_d_106_124)">
<path d="M833.5 470.233C840.523 470.233 846.217 461.286 846.217 450.25C846.217 439.213 840.523 430.266 833.5 430.266C826.477 430.266 820.783 439.213 820.783 450.25C820.783 461.286 826.477 470.233 833.5 470.233Z" fill="#FBFBFB"/>
<path d="M833.5 524.733C840.523 524.733 846.217 515.786 846.217 504.75C846.217 493.713 840.523 484.766 833.5 484.766C826.477 484.766 820.783 493.713 820.783 504.75C820.783 515.786 826.477 524.733 833.5 524.733Z" fill="#FBFBFB"/>
<path d="M806.25 490.216C817.286 490.216 826.233 484.523 826.233 477.5C826.233 470.476 817.286 464.783 806.25 464.783C795.214 464.783 786.267 470.476 786.267 477.5C786.267 484.523 795.214 490.216 806.25 490.216Z" fill="#FBFBFB"/>
<path d="M860.75 490.216C871.786 490.216 880.733 484.523 880.733 477.5C880.733 470.476 871.786 464.783 860.75 464.783C849.713 464.783 840.767 470.476 840.767 477.5C840.767 484.523 849.713 490.216 860.75 490.216Z" fill="#FBFBFB"/>
<path d="M826.362 470.362C831.329 465.396 829.603 455.619 822.509 448.524C815.414 441.43 805.637 439.704 800.671 444.67C795.705 449.637 797.43 459.414 804.525 466.508C811.619 473.603 821.396 475.328 826.362 470.362Z" fill="#FBFBFB"/>
<path d="M840.638 470.362C845.604 475.328 855.381 473.603 862.475 466.508C869.57 459.414 871.295 449.637 866.329 444.671C861.363 439.704 851.586 441.43 844.491 448.524C837.397 455.619 835.671 465.396 840.638 470.362Z" fill="#FBFBFB"/>
<path d="M800.671 510.329C805.637 515.295 815.414 513.57 822.509 506.475C829.603 499.38 831.329 489.603 826.362 484.637C821.396 479.671 811.619 481.396 804.525 488.491C797.43 495.585 795.705 505.363 800.671 510.329Z" fill="#FBFBFB"/>
<path d="M866.329 510.329C871.295 505.363 869.57 495.585 862.475 488.491C855.381 481.396 845.604 479.671 840.638 484.637C835.671 489.603 837.397 499.38 844.491 506.475C851.586 513.57 861.363 515.295 866.329 510.329Z" fill="#FBFBFB"/>
<path d="M833.5 488.4C839.52 488.4 844.4 483.52 844.4 477.5C844.4 471.48 839.52 466.6 833.5 466.6C827.48 466.6 822.6 471.48 822.6 477.5C822.6 483.52 827.48 488.4 833.5 488.4Z" fill="#9E87B5"/>
</g>
<g filter="url(#filter4_d_106_124)">
<path d="M963.045 439.747C962.233 441.153 961.398 442.547 960.614 443.968C957.194 450.167 951.585 452.224 945.036 451.309C939.873 450.587 936.042 447.363 933.459 442.782C942.156 435.965 941.84 427.469 939.159 418.26C936.629 409.569 933.963 400.864 932.308 391.989C930.278 381.103 934.26 372.237 944.027 365.839C945.219 365.295 946.021 364.917 946.792 364.554C951.991 372.341 953.474 372.675 958.055 367.76C959.897 367.856 961.667 368.488 962.774 367.892C964.897 366.749 966.644 364.909 968.76 363.186C970.54 364.067 972.811 364.029 974.314 361.912C977.166 357.893 974.074 354.691 972.344 351.365C976.731 349.945 978.804 350.532 981.811 354.181C984.09 356.947 986.579 358.998 990.488 357.703C995.675 355.984 1000.73 356.085 1005.68 359C1007.08 360.645 1008.39 362.126 1009.75 363.825C1010.64 365.936 1011.48 367.829 1012.31 369.886C1012.44 370.21 1012.57 370.371 1012.69 370.547C1012.68 370.564 1012.67 370.596 1012.68 370.828C1014.34 375.678 1015.73 380.406 1017.68 384.884C1020.37 391.03 1025.42 394.766 1031.63 397.263C1030.23 402.461 1033.64 405.014 1036.71 407.395C1031.41 410.269 1026.24 413.074 1020.87 415.782C1015.2 410.707 1011.41 404.527 1008.71 397.774C1005.76 390.394 1003.49 382.747 1000.64 375.323C998.96 370.944 996.738 366.772 994.759 362.507C994.465 362.629 994.171 362.751 993.877 362.873C993.969 363.34 994.038 363.813 994.155 364.273C996.314 372.753 998.387 381.255 1000.66 389.703C1005.08 406.133 1011.99 421.169 1025.16 432.668C1028.99 436.012 1033.72 435.184 1038.14 435.859C1038.3 435.884 1038.57 435.261 1039 434.962C1042.28 435.457 1043.18 437.822 1043.92 440.56C1045.08 444.697 1046.22 448.614 1047.37 452.568C1045.76 453.215 1044.74 453.624 1043.48 454.042C1039.18 454.587 1035.11 455.124 1030.84 455.515C1026.61 454.367 1022.61 453.205 1018.54 452.403C1014.14 451.536 1010.07 452.407 1006.59 455.806C1003.41 458.414 1000.43 460.949 997.219 463.55C995.542 464.114 994.088 464.613 992.533 464.921C990.241 463.07 987.89 461.581 985.885 459.72C974.279 448.955 967.16 435.381 961.946 420.724C959.434 413.663 957.434 406.422 955.203 399.263C955.552 413.191 959.184 426.491 963.045 439.747Z" fill="#F0F1EC"/>
<path d="M992.126 296.625C984.802 290.796 984.665 284.687 992.116 278.86C994.378 278.478 996.254 278.292 998.172 278.359C998.66 282.454 999.233 286.245 1002.59 289.449C1003.01 287.088 1003.36 285.129 1003.71 283.168C1006.19 269.046 1013.52 259.666 1028.5 257.47C1034.47 256.595 1040.4 255.387 1046.3 254.122C1053.14 252.653 1059.04 249.296 1064.06 244.106C1064.79 245.436 1065.33 246.401 1065.86 247.37C1070.09 255.12 1076.17 261.089 1085.03 262.236C1091.24 263.04 1093.69 266.516 1095.63 271.383C1095.79 271.762 1095.96 272.13 1096.12 272.51C1098.22 277.793 1100.32 283.078 1102.51 288.585C1105.46 285.318 1106.33 281.523 1106.76 277.441C1109.49 277.719 1111.93 278.027 1114.37 278.334C1115.86 280.563 1117.89 282.613 1118.7 285.064C1119.79 288.363 1118.77 291.679 1116.14 294.668C1112.81 295.67 1109.84 296.722 1106.79 297.093C1105.14 297.292 1104.54 297.865 1103.95 299.185C1100.55 306.761 1095.34 312.845 1088.35 317.334C1085.18 319.375 1081.79 321.086 1078.35 322.947C1077.95 323.13 1077.71 323.312 1077.25 323.493C1076.23 323.77 1075.42 324.048 1074.38 324.333C1062.73 327.616 1051.2 328.306 1039.52 326.134C1036.34 325.544 1033.17 324.932 1029.82 324.233C1028.79 323.747 1027.93 323.358 1026.96 322.83C1026.49 322.618 1026.14 322.545 1025.6 322.373C1014.47 317.207 1005.78 309.881 1001.13 298.407C1000.88 297.788 999.623 297.366 998.775 297.242C996.575 296.92 994.344 296.816 992.126 296.625ZM1042.82 277.723C1042.44 276.377 1042.46 274.619 1041.59 273.782C1040.25 272.497 1038.3 271.16 1036.62 271.165C1035.48 271.168 1034.35 273.442 1033 275.065C1030.51 278.506 1030.63 282.265 1032.45 285.752C1033.21 287.212 1035.32 288.744 1036.87 288.803C1038.4 288.861 1040.8 287.447 1041.4 286.066C1042.43 283.687 1042.36 280.833 1042.82 277.723ZM1073.26 277.85C1073.11 274.07 1071.25 271.211 1068.55 270.937C1065.53 270.632 1064.16 272.532 1063.32 275.56C1061.08 278.978 1061.38 282.543 1063.03 285.998C1064.81 289.733 1069.28 290.092 1071.74 286.762C1073.59 284.252 1074.06 281.403 1073.26 277.85ZM1059.27 303.937C1053.5 307.601 1049.6 307.182 1044.78 302.523C1044.18 301.948 1043.15 301.83 1042.31 301.5C1042.46 302.487 1042.28 303.734 1042.82 304.419C1047.02 309.782 1056.32 310.279 1061.44 305.358C1062.35 304.487 1062.52 302.86 1063.04 301.582C1061.98 302.215 1060.92 302.847 1059.87 303.483C1059.78 303.535 1059.71 303.616 1059.27 303.937ZM1053.42 290.447C1053.58 289.905 1053.74 289.363 1053.9 288.821C1051.96 288.805 1049.88 288.366 1048.14 288.94C1047.18 289.255 1046.52 291.219 1046.24 292.547C1046.1 293.197 1047.15 294.092 1047.66 294.876C1047.92 294.853 1048.17 294.831 1048.43 294.808C1048 291.098 1049.87 290.079 1053.42 290.447Z" fill="#F8A55F"/>
<path d="M998.131 278.105C996.254 278.292 994.378 278.478 992.256 278.706C989.374 267.92 989.626 257.019 991.592 246.17C994.456 230.361 1004.64 220.767 1019.03 214.946C1020.35 214.411 1021.72 214.003 1022.38 213.776C1022.53 210.289 1022.04 206.953 1022.96 204.063C1024.27 199.933 1027.78 197.217 1031.65 195.372C1046.19 188.441 1060.84 188.261 1074.99 196.089C1082.69 200.346 1085.46 205.117 1082.63 213.307C1086.86 215.361 1091.18 217.22 1095.26 219.488C1104.34 224.523 1110.56 231.679 1113.06 242.133C1115.89 254.003 1118.02 265.754 1114.41 278.07C1111.93 278.027 1109.49 277.719 1106.67 277.222C1105.27 272.583 1104.81 267.911 1103.13 263.729C1098.43 252.046 1088.68 246.043 1077.16 242.635C1062.33 238.249 1047.28 238.564 1032.24 241.436C1023.16 243.171 1014.75 246.628 1007.83 252.947C1000.45 259.684 997.806 268.353 998.131 278.105Z" fill="#16202B"/>
<path d="M1043.9 440.339C1043.18 437.822 1042.28 435.457 1038.83 434.826C1033.29 431.758 1028.03 429.024 1023.02 425.889C1018.55 423.089 1018.19 420.389 1021.07 415.878C1026.24 413.074 1031.41 410.269 1036.71 407.395C1033.64 405.014 1030.23 402.461 1031.86 397.23C1034.1 396.929 1036.12 396.756 1038.1 396.939C1042.78 397.369 1047.42 398.264 1052.1 398.446C1068.57 399.088 1085.04 399.503 1101.51 400.021C1103.52 400.084 1105.52 400.245 1107.69 400.37C1107.45 396.502 1107.3 393.274 1104.79 390.3C1101.01 385.809 1098.39 380.578 1097.74 374.403C1097.73 373.964 1097.69 373.713 1097.69 373.192C1097.7 371.655 1097.66 370.387 1097.68 368.87C1097.65 367.953 1097.58 367.286 1097.58 366.353C1097.61 364.432 1097.57 362.777 1097.61 360.842C1098.02 348.142 1097.37 335.908 1091.04 324.838C1097.41 325.766 1103.03 327.933 1108.2 331.288C1110.05 332.488 1111.95 333.611 1113.82 334.769C1117.05 338.168 1120.53 341.362 1123.45 345.001C1138.41 363.619 1145.3 384.739 1142.28 408.625C1140.23 424.846 1131.47 433.344 1114.79 436.012C1113.78 436.173 1112.77 436.337 1111.27 436.573C1088.48 437.877 1066.19 439.108 1043.9 440.339ZM1108.49 402.185C1098.36 403.157 1088.24 404.129 1077.62 405.148C1081.08 414.507 1081.69 423.506 1080.83 432.825C1081.92 432.825 1082.52 432.878 1083.1 432.818C1094.92 431.61 1106.73 430.418 1118.53 429.156C1122.03 428.783 1124.64 426.658 1124.96 423.169C1125.28 419.569 1125.29 415.781 1124.52 412.272C1122.39 402.469 1119.65 400.771 1109.67 402.072C1109.47 402.098 1109.26 402.113 1108.49 402.185ZM1069.22 427.937C1078.02 428.051 1076.92 428.494 1076.96 419.97C1076.96 419.868 1076.95 419.766 1076.96 419.664C1077.1 417.144 1075.8 416.211 1073.39 416.273C1069.92 416.362 1066.45 416.398 1062.98 416.346C1053.89 416.21 1055.09 416.021 1055.03 424.469C1055.01 427.183 1056.3 428.049 1058.81 427.974C1062.07 427.877 1065.34 427.941 1069.22 427.937ZM1107.74 373.615C1110.17 382.079 1112.93 390.49 1112.13 399.825C1113.16 399.3 1114.38 398.541 1114.42 397.734C1114.54 394.699 1114.76 391.533 1114.06 388.628C1112.49 382.119 1110.38 375.741 1108.51 369.303C1107.86 367.078 1107.28 364.834 1106.67 362.599C1106.4 362.661 1106.14 362.723 1105.87 362.785C1106.47 366.225 1107.08 369.666 1107.74 373.615Z" fill="#16202B"/>
<path d="M997.441 463.485C1000.43 460.949 1003.41 458.414 1006.88 455.802C1015.25 455.705 1023.14 455.683 1031.04 455.661C1035.11 455.124 1039.18 454.587 1043.69 454.19C1047.27 454.182 1050.42 454.062 1053.56 453.882C1064.05 453.282 1074.53 452.613 1085.02 452.061C1094.5 451.561 1103.99 451.178 1113.47 450.744C1114.7 457.765 1115.93 464.785 1117.26 472.375C1079.06 474.713 1041.35 475.126 1003.27 473.169C1001.99 472.52 1001.06 472.132 999.864 471.633C1001.05 470.636 1002.22 470.02 1002.83 469.055C1003.51 467.976 1003.68 466.581 1004.08 465.323C1002.9 465.1 1001.71 464.673 1000.53 464.71C999.242 464.75 997.845 465.525 997.441 463.485Z" fill="#D73A3B"/>
<path d="M1005.59 358.836C1000.73 356.085 995.675 355.984 990.488 357.703C986.579 358.998 984.09 356.947 981.811 354.181C978.804 350.532 976.731 349.944 972.344 351.365C974.074 354.691 977.166 357.892 974.314 361.912C972.811 364.029 970.54 364.067 968.76 363.186C966.644 364.909 964.897 366.749 962.774 367.892C961.667 368.488 959.897 367.856 958.055 367.76C953.474 372.675 951.991 372.341 946.792 364.554C946.021 364.917 945.219 365.295 944.169 365.711C945.096 355.169 954.886 347.454 965.771 348.139C968.361 348.301 971.438 347.858 973.587 346.546C979.921 342.678 985.903 338.234 992.327 333.791C993.686 332.966 994.757 332.387 995.797 331.761C1001.15 328.537 1006.68 325.744 1012.88 325.061C1011.53 327.908 1009.97 330.465 1009.07 333.233C1006.35 341.534 1005.39 350.118 1005.59 358.836Z" fill="#16202B"/>
<path d="M1113.47 450.481C1103.99 451.178 1094.5 451.561 1085.02 452.061C1074.53 452.613 1064.05 453.282 1053.56 453.882C1050.42 454.062 1047.27 454.182 1043.92 454.181C1044.74 453.624 1045.76 453.215 1047.37 452.568C1046.22 448.614 1045.08 444.697 1043.92 440.56C1066.19 439.108 1088.48 437.877 1111.03 436.665C1112.01 441.194 1112.74 445.706 1113.47 450.481Z" fill="#B82F32"/>
<path d="M1114.03 334.686C1111.95 333.611 1110.05 332.488 1108.2 331.288C1103.03 327.933 1097.41 325.766 1090.87 324.723C1089.61 324.269 1088.81 323.739 1087.96 323.654C1084.82 323.339 1081.66 323.17 1078.5 322.947C1081.79 321.086 1085.18 319.375 1088.35 317.334C1095.34 312.845 1100.55 306.761 1103.95 299.185C1104.54 297.865 1105.14 297.292 1106.79 297.093C1109.84 296.722 1112.81 295.67 1116.03 294.862C1115.25 304.014 1115.71 313.124 1117.33 322.235C1118.12 326.669 1117.29 330.986 1114.03 334.686Z" fill="#713E24"/>
<path d="M1012.98 324.868C1006.68 325.744 1001.15 328.537 995.797 331.761C994.756 332.387 993.686 332.966 992.415 333.596C992.174 321.486 992.148 309.346 992.123 296.916C994.344 296.816 996.575 296.92 998.775 297.242C999.623 297.366 1000.88 297.788 1001.13 298.407C1005.78 309.881 1014.47 317.207 1025.42 322.54C1021.25 323.371 1016.8 322.225 1012.98 324.868Z" fill="#713E24"/>
<path d="M963.137 439.949C959.184 426.491 955.552 413.191 955.203 399.263C957.434 406.422 959.434 413.663 961.946 420.724C967.16 435.381 974.279 448.955 985.885 459.72C987.89 461.581 990.241 463.07 992.339 465.052C989.306 465.643 986.368 465.914 983.43 466.184C976.671 464.043 972.288 459.242 969.199 453.173C967.034 448.921 965.207 444.498 963.137 439.949Z" fill="#D7D7D3"/>
<path d="M983.418 466.427C986.368 465.914 989.306 465.643 992.439 465.242C994.088 464.613 995.542 464.114 997.219 463.55C997.845 465.525 999.242 464.75 1000.54 464.709C1001.71 464.673 1002.9 465.1 1004.08 465.323C1003.68 466.581 1003.51 467.976 1002.83 469.055C1002.22 470.02 1001.05 470.636 999.864 471.633C1001.06 472.132 1001.99 472.52 1002.99 473.108C996.278 473.055 989.504 472.801 982.422 472.536C982.809 470.224 983.107 468.447 983.418 466.427Z" fill="#CF3638"/>
<path d="M1097.69 374.591C1098.39 380.578 1101.01 385.809 1104.79 390.3C1107.3 393.274 1107.45 396.502 1107.69 400.37C1105.52 400.245 1103.52 400.084 1101.51 400.021C1085.04 399.503 1068.57 399.088 1052.1 398.446C1047.42 398.264 1042.78 397.369 1038.1 396.939C1036.12 396.756 1034.1 396.929 1031.88 396.974C1025.42 394.765 1020.37 391.029 1017.69 384.884C1015.73 380.406 1014.34 375.677 1012.98 370.752C1016.02 370.406 1018.77 370.368 1021.53 370.582C1021.36 373.114 1022.09 374.584 1024.69 374.684C1026.61 374.759 1028.52 375.213 1030.44 375.22C1045.37 375.267 1060.3 375.246 1075.23 375.246C1080.02 375.246 1080.02 375.245 1080.27 370.273C1080.76 368.791 1080.99 367.363 1081.26 365.943C1081.72 363.585 1082.26 361.243 1082.66 358.875C1082.91 357.363 1082.96 355.818 1083.3 354.249C1084 354.055 1084.51 353.899 1085.2 353.744C1085.63 353.743 1085.88 353.743 1086.15 353.997C1086.34 358.753 1087.14 359.392 1092.39 359.347C1094.17 360.077 1095.85 360.599 1097.53 361.122C1097.57 362.777 1097.61 364.432 1097.37 366.351C1093.36 366.281 1089.64 365.825 1085.9 365.723C1085.22 365.704 1084.49 367.121 1083.78 367.875C1084.57 368.285 1085.34 369.023 1086.14 369.05C1089.96 369.178 1093.79 369.114 1097.63 369.119C1097.66 370.387 1097.7 371.655 1097.6 373.289C1097.54 373.967 1097.61 374.279 1097.69 374.591Z" fill="#D7393B"/>
<path d="M1083.1 354.288C1082.96 355.818 1082.91 357.364 1082.66 358.875C1082.26 361.243 1081.72 363.585 1081.26 365.943C1080.99 367.363 1080.76 368.791 1079.98 370.273C1060.14 370.329 1040.84 370.33 1021.53 370.33C1018.77 370.368 1016.02 370.406 1012.96 370.52C1012.67 370.596 1012.68 370.564 1012.71 370.383C1012.6 370.042 1012.46 369.882 1012.32 369.723C1011.48 367.829 1010.64 365.936 1009.98 363.812C1012.3 361.917 1014.43 360.252 1016.66 358.393C1017.1 356.912 1017.44 355.626 1018.03 354.308C1018.44 354.249 1018.6 354.222 1019.03 354.19C1040.56 354.219 1061.83 354.253 1083.1 354.288Z" fill="#CF3638"/>
<path d="M1018.76 354.195C1018.6 354.222 1018.44 354.249 1017.94 354.119C1017.3 353.434 1017.07 352.833 1016.67 352.391C1015.12 350.693 1013.31 350.21 1011.15 351.269C1008.76 352.447 1008.89 354.613 1009.35 356.575C1009.87 358.777 1011.7 359.524 1013.89 359.226C1014.79 359.103 1015.67 358.805 1016.56 358.587C1014.43 360.252 1012.3 361.917 1009.94 363.595C1008.39 362.126 1007.08 360.645 1005.68 359C1005.39 350.118 1006.35 341.534 1009.07 333.233C1009.97 330.465 1011.53 327.908 1012.88 325.061C1016.8 322.225 1021.25 323.371 1025.61 322.639C1026.14 322.545 1026.49 322.618 1026.82 323.01C1025.12 330.216 1023.27 337.067 1021.86 344.009C1021.41 346.219 1020.96 347.767 1018.35 347.942C1018.5 350.181 1018.63 352.188 1018.76 354.195Z" fill="#D7393B"/>
<path d="M1020.87 415.782C1018.19 420.389 1018.55 423.089 1023.02 425.889C1028.03 429.024 1033.29 431.758 1038.61 434.803C1038.57 435.261 1038.3 435.884 1038.14 435.859C1033.72 435.184 1028.99 436.012 1025.16 432.668C1011.99 421.169 1005.08 406.133 1000.66 389.703C998.387 381.255 996.314 372.753 994.155 364.273C994.038 363.813 993.968 363.34 993.877 362.873C994.171 362.751 994.465 362.629 994.759 362.507C996.738 366.772 998.96 370.944 1000.64 375.323C1003.49 382.747 1005.76 390.394 1008.71 397.774C1011.41 404.527 1015.2 410.707 1020.87 415.782Z" fill="#D7D7D3"/>
<path d="M1030.84 455.515C1023.14 455.683 1015.25 455.705 1007.07 455.73C1010.07 452.407 1014.14 451.536 1018.54 452.403C1022.61 453.205 1026.61 454.367 1030.84 455.515Z" fill="#CF3638"/>
<path d="M1012.31 369.886C1012.46 369.882 1012.6 370.042 1012.72 370.367C1012.57 370.371 1012.44 370.21 1012.31 369.886Z" fill="#D7393B"/>
<path d="M998.172 278.359C997.806 268.353 1000.45 259.684 1007.83 252.947C1014.75 246.628 1023.16 243.171 1032.24 241.436C1047.28 238.564 1062.33 238.249 1077.16 242.635C1088.68 246.043 1098.43 252.046 1103.13 263.729C1104.81 267.911 1105.27 272.583 1106.39 277.25C1106.33 281.523 1105.46 285.318 1102.51 288.585C1100.32 283.078 1098.22 277.793 1096.12 272.51C1095.96 272.13 1095.79 271.762 1095.63 271.383C1093.69 266.516 1091.24 263.04 1085.03 262.236C1076.17 261.089 1070.09 255.12 1065.86 247.37C1065.33 246.401 1064.79 245.436 1064.06 244.106C1059.04 249.296 1053.14 252.653 1046.3 254.122C1040.4 255.387 1034.47 256.595 1028.5 257.47C1013.52 259.666 1006.19 269.046 1003.71 283.168C1003.36 285.129 1003.01 287.088 1002.59 289.449C999.233 286.245 998.66 282.454 998.172 278.359Z" fill="#713E24"/>
<path d="M1019.03 354.19C1018.63 352.188 1018.5 350.181 1018.35 347.942C1020.96 347.768 1021.41 346.219 1021.86 344.009C1023.27 337.067 1025.12 330.216 1026.94 323.149C1027.93 323.358 1028.79 323.747 1029.82 324.471C1029.84 326.261 1029.7 327.715 1029.46 329.402C1029.16 331.149 1028.95 332.664 1028.75 334.18C1028.15 338.56 1029.44 340.512 1033.84 341.222C1037.37 341.791 1040.95 342.355 1044.5 342.298C1053.07 342.161 1061.65 341.879 1070.18 341.213C1074.53 340.873 1075.92 338.708 1075.7 334.35C1075.61 332.627 1075.25 330.918 1075.06 328.956C1074.93 327.249 1074.78 325.788 1074.62 324.327C1075.42 324.048 1076.23 323.77 1077.25 323.744C1079.14 330.992 1080.79 337.99 1082.5 344.974C1082.68 345.691 1083.18 346.328 1083.55 346.996C1084.01 347.827 1084.73 348.607 1084.88 349.487C1085.12 350.872 1084.99 352.321 1085.01 353.743C1084.51 353.899 1084 354.055 1083.3 354.249C1061.83 354.254 1040.56 354.219 1019.03 354.19Z" fill="#16202B"/>
<path d="M1085.2 353.744C1084.99 352.321 1085.12 350.871 1084.88 349.487C1084.73 348.607 1084.01 347.827 1083.55 346.996C1083.18 346.328 1082.67 345.691 1082.5 344.974C1080.79 337.99 1079.14 330.992 1077.47 323.746C1077.71 323.312 1077.95 323.13 1078.35 322.947C1081.66 323.17 1084.82 323.339 1087.96 323.654C1088.81 323.739 1089.61 324.269 1090.6 324.71C1097.37 335.908 1098.01 348.142 1097.61 360.842C1095.85 360.599 1094.17 360.077 1092.51 359.177C1093.12 357.02 1094.08 355.251 1094.14 353.455C1094.16 352.756 1092.2 351.565 1091.02 351.359C1089.03 351.014 1086.86 351.146 1086.13 353.743C1085.88 353.743 1085.63 353.743 1085.2 353.744Z" fill="#D73A3B"/>
<path d="M1074.38 324.333C1074.78 325.788 1074.93 327.249 1074.83 328.981C1067.54 332.035 1060.08 333.088 1052.7 332.669C1044.94 332.228 1037.26 330.395 1029.55 329.17C1029.7 327.715 1029.84 326.261 1029.99 324.568C1033.17 324.932 1036.34 325.544 1039.52 326.134C1051.2 328.306 1062.73 327.616 1074.38 324.333Z" fill="#DD8343"/>
<path d="M1073.21 278.372C1074.06 281.403 1073.59 284.252 1071.74 286.762C1069.28 290.092 1064.81 289.733 1063.03 285.998C1061.38 282.543 1061.08 278.978 1063.62 275.292C1065.15 274.796 1066.39 274.567 1067.59 274.343C1068.98 280.046 1069.61 280.457 1073.21 278.372Z" fill="#1B2530"/>
<path d="M1042.75 278.178C1042.36 280.833 1042.43 283.687 1041.4 286.066C1040.8 287.447 1038.4 288.861 1036.87 288.803C1035.32 288.744 1033.21 287.212 1032.45 285.752C1030.63 282.265 1030.51 278.506 1033.38 274.825C1035.17 274.649 1037 273.33 1037.63 275.906C1038.65 280.021 1039.25 280.256 1042.75 278.178Z" fill="#1A242F"/>
<path d="M1059.45 303.81C1059.71 303.616 1059.78 303.535 1059.87 303.483C1060.92 302.847 1061.98 302.215 1063.04 301.582C1062.52 302.86 1062.35 304.487 1061.44 305.358C1056.32 310.279 1047.02 309.782 1042.82 304.419C1042.28 303.734 1042.46 302.487 1042.31 301.5C1043.15 301.83 1044.18 301.948 1044.78 302.523C1049.6 307.182 1053.5 307.601 1059.45 303.81Z" fill="#B82F32"/>
<path d="M1073.23 278.111C1069.61 280.457 1068.98 280.046 1067.59 274.343C1066.39 274.567 1065.15 274.796 1063.69 275.079C1064.16 272.532 1065.53 270.632 1068.55 270.937C1071.25 271.211 1073.11 274.07 1073.23 278.111Z" fill="#F4F4F4"/>
<path d="M1042.78 277.951C1039.25 280.256 1038.65 280.021 1037.63 275.906C1037 273.33 1035.17 274.649 1033.48 274.642C1034.35 273.442 1035.48 271.168 1036.62 271.165C1038.3 271.16 1040.25 272.497 1041.59 273.782C1042.46 274.619 1042.44 276.377 1042.78 277.951Z" fill="#F4F4F4"/>
<path d="M1053.18 290.453C1049.87 290.079 1048 291.098 1048.43 294.808C1048.17 294.831 1047.92 294.853 1047.66 294.876C1047.15 294.092 1046.1 293.197 1046.24 292.547C1046.52 291.219 1047.18 289.255 1048.14 288.94C1049.88 288.366 1051.96 288.805 1053.9 288.821C1053.74 289.363 1053.58 289.905 1053.18 290.453Z" fill="#B82F32"/>
<path d="M1108.78 402.159C1109.26 402.113 1109.47 402.098 1109.67 402.072C1119.65 400.771 1122.39 402.469 1124.52 412.272C1125.29 415.781 1125.28 419.569 1124.96 423.169C1124.64 426.658 1122.03 428.783 1118.53 429.156C1106.73 430.418 1094.92 431.61 1083.1 432.818C1082.52 432.878 1081.92 432.825 1080.83 432.825C1081.69 423.506 1081.08 414.507 1077.62 405.148C1088.24 404.129 1098.36 403.157 1108.78 402.159Z" fill="#16202B"/>
<path d="M1068.91 427.936C1065.34 427.941 1062.07 427.877 1058.81 427.974C1056.3 428.049 1055.01 427.183 1055.03 424.469C1055.09 416.021 1053.89 416.21 1062.98 416.346C1066.45 416.398 1069.92 416.362 1073.39 416.273C1075.8 416.211 1077.1 417.144 1076.96 419.664C1076.95 419.766 1076.96 419.868 1076.96 419.97C1076.92 428.494 1078.02 428.051 1068.91 427.936Z" fill="#16202B"/>
<path d="M1107.71 373.36C1107.08 369.666 1106.47 366.225 1105.87 362.785C1106.14 362.723 1106.4 362.661 1106.67 362.599C1107.28 364.834 1107.86 367.078 1108.51 369.303C1110.38 375.741 1112.49 382.119 1114.06 388.628C1114.76 391.533 1114.54 394.699 1114.42 397.734C1114.38 398.541 1113.16 399.301 1112.13 399.825C1112.93 390.491 1110.17 382.079 1107.71 373.36Z" fill="#222C37"/>
<path d="M1097.68 368.87C1093.79 369.114 1089.96 369.178 1086.14 369.05C1085.34 369.023 1084.57 368.285 1083.78 367.875C1084.49 367.121 1085.22 365.704 1085.9 365.723C1089.64 365.825 1093.36 366.281 1097.3 366.617C1097.58 367.286 1097.65 367.953 1097.68 368.87Z" fill="#CF3638"/>
<path d="M1097.74 374.403C1097.61 374.279 1097.54 373.967 1097.55 373.558C1097.69 373.713 1097.73 373.964 1097.74 374.403Z" fill="#CF3638"/>
<path d="M1021.53 370.582C1040.84 370.33 1060.14 370.329 1079.73 370.329C1080.02 375.245 1080.02 375.246 1075.23 375.246C1060.3 375.246 1045.37 375.267 1030.44 375.22C1028.52 375.214 1026.61 374.759 1024.69 374.685C1022.09 374.584 1021.36 373.114 1021.53 370.582Z" fill="#D73A3B"/>
<path d="M1086.15 353.997C1086.86 351.146 1089.03 351.014 1091.02 351.359C1092.2 351.565 1094.16 352.756 1094.14 353.455C1094.08 355.251 1093.12 357.02 1092.41 358.969C1087.14 359.392 1086.34 358.754 1086.15 353.997Z" fill="#DD8343"/>
<path d="M1016.66 358.393C1015.67 358.805 1014.79 359.103 1013.89 359.226C1011.7 359.524 1009.87 358.777 1009.35 356.575C1008.89 354.613 1008.76 352.447 1011.15 351.269C1013.31 350.21 1015.12 350.693 1016.67 352.391C1017.07 352.833 1017.3 353.434 1017.7 354.151C1017.44 355.626 1017.1 356.912 1016.66 358.393Z" fill="#DD8343"/>
<path d="M1029.46 329.402C1037.26 330.395 1044.94 332.228 1052.7 332.669C1060.08 333.088 1067.54 332.035 1074.79 329.227C1075.25 330.917 1075.61 332.627 1075.7 334.35C1075.92 338.708 1074.53 340.873 1070.18 341.213C1061.65 341.879 1053.07 342.161 1044.5 342.298C1040.95 342.355 1037.37 341.79 1033.84 341.222C1029.44 340.512 1028.15 338.56 1028.75 334.18C1028.95 332.664 1029.16 331.149 1029.46 329.402Z" fill="#F8A55F"/>
</g>
<defs>
<filter id="filter0_d_106_124" x="1302" y="116" width="80" height="80" filterUnits="userSpaceOnUse" color-interpolation-filters="sRGB">
<feFlood flood-opacity="0" result="BackgroundImageFix"/>
<feColorMatrix in="SourceAlpha" type="matrix" values="0 0 0 0 0 0 0 0 0 0 0 0 0 0 0 0 0 0 127 0" result="hardAlpha"/>
<feOffset dy="4"/>
<feGaussianBlur stdDeviation="5"/>
<feColorMatrix type="matrix" values="0 0 0 0 0 0 0 0 0 0 0 0 0 0 0 0 0 0 0.25 0"/>
<feBlend mode="normal" in2="BackgroundImageFix" result="effect1_dropShadow_106_124"/>
<feBlend mode="normal" in="SourceGraphic" in2="effect1_dropShadow_106_124" result="shape"/>
</filter>
<filter id="filter1_d_106_124" x="43" y="63" width="90" height="90" filterUnits="userSpaceOnUse" color-interpolation-filters="sRGB">
<feFlood flood-opacity="0" result="BackgroundImageFix"/>
<feColorMatrix in="SourceAlpha" type="matrix" values="0 0 0 0 0 0 0 0 0 0 0 0 0 0 0 0 0 0 127 0" result="hardAlpha"/>
<feOffset dy="4"/>
<feGaussianBlur stdDeviation="5"/>
<feColorMatrix type="matrix" values="0 0 0 0 0 0 0 0 0 0 0 0 0 0 0 0 0 0 0.25 0"/>
<feBlend mode="normal" in2="BackgroundImageFix" result="effect1_dropShadow_106_124"/>
<feBlend mode="normal" in="SourceGraphic" in2="effect1_dropShadow_106_124" result="shape"/>
</filter>
<filter id="filter2_d_106_124" x="778.922" y="88.9995" width="526.834" height="494.443" filterUnits="userSpaceOnUse" color-interpolation-filters="sRGB">
<feFlood flood-opacity="0" result="BackgroundImageFix"/>
<feColorMatrix in="SourceAlpha" type="matrix" values="0 0 0 0 0 0 0 0 0 0 0 0 0 0 0 0 0 0 127 0" result="hardAlpha"/>
<feOffset dy="4"/>
<feGaussianBlur stdDeviation="5"/>
<feComposite in2="hardAlpha" operator="out"/>
<feColorMatrix type="matrix" values="0 0 0 0 0 0 0 0 0 0 0 0 0 0 0 0 0 0 0.25 0"/>
<feBlend mode="normal" in2="BackgroundImageFix" result="effect1_dropShadow_106_124"/>
<feBlend mode="normal" in="SourceGraphic" in2="effect1_dropShadow_106_124" result="shape"/>
</filter>
<filter id="filter3_d_106_124" x="769" y="417" width="129" height="129" filterUnits="userSpaceOnUse" color-interpolation-filters="sRGB">
<feFlood flood-opacity="0" result="BackgroundImageFix"/>
<feColorMatrix in="SourceAlpha" type="matrix" values="0 0 0 0 0 0 0 0 0 0 0 0 0 0 0 0 0 0 127 0" result="hardAlpha"/>
<feOffset dy="4"/>
<feGaussianBlur stdDeviation="5"/>
<feColorMatrix type="matrix" values="0 0 0 0 0 0 0 0 0 0 0 0 0 0 0 0 0 0 0.25 0"/>
<feBlend mode="normal" in2="BackgroundImageFix" result="effect1_dropShadow_106_124"/>
<feBlend mode="normal" in="SourceGraphic" in2="effect1_dropShadow_106_124" result="shape"/>
</filter>
<filter id="filter4_d_106_124" x="887" y="159" width="298" height="368" filterUnits="userSpaceOnUse" color-interpolation-filters="sRGB">
<feFlood flood-opacity="0" result="BackgroundImageFix"/>
<feColorMatrix in="SourceAlpha" type="matrix" values="0 0 0 0 0 0 0 0 0 0 0 0 0 0 0 0 0 0 127 0" result="hardAlpha"/>
<feOffset dy="4"/>
<feGaussianBlur stdDeviation="2"/>
<feColorMatrix type="matrix" values="0 0 0 0 0 0 0 0 0 0 0 0 0 0 0 0 0 0 0.25 0"/>
<feBlend mode="normal" in2="BackgroundImageFix" result="effect1_dropShadow_106_124"/>
<feBlend mode="normal" in="SourceGraphic" in2="effect1_dropShadow_106_124" result="shape"/>
</filter>
</defs>
</svg>
