<svg width="39" height="39" viewBox="0 0 39 39" fill="none" xmlns="http://www.w3.org/2000/svg">
<g clip-path="url(#clip0_25_264)">
<path d="M15.8438 10.9249C19.8998 6.84694 30.0422 13.9815 15.8438 23.1562C1.64532 13.9815 11.7878 6.84937 15.8438 10.9249Z" fill="#9E87B5"/>
<path d="M31.6875 15.8438C31.693 19.2144 30.6183 22.4982 28.6211 25.2135C28.7186 25.285 28.8121 25.3646 28.9015 25.4524L38.2858 34.8368C38.7432 35.2938 39.0003 35.9138 39.0005 36.5604C39.0007 37.207 38.7441 37.8272 38.287 38.2846C37.83 38.742 37.21 38.999 36.5634 38.9993C35.9168 38.9995 35.2966 38.7429 34.8392 38.2858L25.4548 28.9014C25.3666 28.8143 25.2851 28.7206 25.2111 28.6211H25.216C22.3441 30.7281 18.8461 31.8059 15.2865 31.6806C11.7269 31.5553 8.31328 30.2343 5.59669 27.9306C2.88009 25.627 1.01898 22.4751 0.313713 18.9838C-0.391552 15.4925 0.100181 11.8654 1.70955 8.68789C3.31892 5.51038 5.95202 2.96784 9.18391 1.47063C12.4158 -0.0265711 16.0579 -0.391095 19.5224 0.435895C22.9869 1.26288 26.0717 3.23314 28.2788 6.02867C30.486 8.8242 31.6869 12.2819 31.6875 15.8438ZM15.8438 29.25C17.6043 29.25 19.3476 28.9032 20.9741 28.2295C22.6006 27.5558 24.0785 26.5683 25.3234 25.3234C26.5683 24.0785 27.5558 22.6006 28.2295 20.9741C28.9033 19.3476 29.25 17.6043 29.25 15.8438C29.25 14.0832 28.9033 12.3399 28.2295 10.7134C27.5558 9.08688 26.5683 7.60898 25.3234 6.3641C24.0785 5.11921 22.6006 4.13172 20.9741 3.45799C19.3476 2.78426 17.6043 2.4375 15.8438 2.4375C12.2882 2.4375 8.87828 3.84994 6.36412 6.3641C3.84996 8.87826 2.43752 12.2882 2.43752 15.8438C2.43752 19.3993 3.84996 22.8092 6.36412 25.3234C8.87828 27.8376 12.2882 29.25 15.8438 29.25Z" fill="#9E87B5"/>
</g>
<defs>
<clipPath id="clip0_25_264">
<rect width="39" height="39" fill="white"/>
</clipPath>
</defs>
</svg>
