<svg width="39" height="39" viewBox="0 0 39 39" fill="none" xmlns="http://www.w3.org/2000/svg">
<rect width="39" height="39" rx="10" fill="#9E87B5"/>
<g clip-path="url(#clip0_25_232)">
<path d="M19.0908 6C15.5629 6 15.1193 6.01625 13.7332 6.078C12.3471 6.143 11.4029 6.36075 10.5758 6.6825C9.70782 7.00803 8.9218 7.52002 8.2732 8.18238C7.61084 8.83098 7.09885 9.617 6.77332 10.485C6.45157 11.3105 6.2322 12.2562 6.16882 13.6375C6.10707 15.0269 6.09082 15.4689 6.09082 19.0016C6.09082 22.5311 6.10707 22.9731 6.16882 24.3593C6.23382 25.7437 6.45157 26.6879 6.77332 27.515C7.10645 28.3697 7.55007 29.0945 8.2732 29.8176C8.9947 30.5407 9.71945 30.986 10.5742 31.3175C11.4029 31.6392 12.3454 31.8586 13.7299 31.922C15.1177 31.9837 15.5597 32 19.0908 32C22.6219 32 23.0623 31.9837 24.4501 31.922C25.8329 31.857 26.7803 31.6392 27.6074 31.3175C28.4749 30.9918 29.2603 30.4798 29.9084 29.8176C30.6316 29.0945 31.0752 28.3697 31.4083 27.515C31.7284 26.6879 31.9478 25.7437 32.0128 24.3593C32.0746 22.9731 32.0908 22.5311 32.0908 19C32.0908 15.4689 32.0746 15.0269 32.0128 13.6391C31.9478 12.2563 31.7284 11.3105 31.4083 10.485C31.0828 9.617 30.5708 8.83098 29.9084 8.18238C29.2598 7.52002 28.4738 7.00803 27.6058 6.6825C26.7771 6.36075 25.8313 6.14138 24.4484 6.078C23.0607 6.01625 22.6203 6 19.0876 6H19.0908ZM17.9257 8.34325H19.0924C22.5634 8.34325 22.9746 8.35462 24.3444 8.418C25.6119 8.47487 26.3009 8.68775 26.7592 8.86488C27.3653 9.1005 27.7992 9.38325 28.2542 9.83825C28.7092 10.2933 28.9903 10.7255 29.2259 11.3333C29.4047 11.7899 29.6159 12.4789 29.6728 13.7464C29.7362 15.1163 29.7492 15.5274 29.7492 18.9967C29.7492 22.4661 29.7362 22.8789 29.6728 24.2487C29.6159 25.5162 29.4031 26.2036 29.2259 26.6619C29.016 27.2256 28.6836 27.7357 28.2526 28.1553C27.7976 28.6103 27.3653 28.8914 26.7576 29.127C26.3026 29.3057 25.6136 29.517 24.3444 29.5755C22.9746 29.6373 22.5634 29.6519 19.0924 29.6519C15.6214 29.6519 15.2087 29.6373 13.8388 29.5755C12.5713 29.517 11.8839 29.3057 11.4257 29.127C10.8615 28.9178 10.3509 28.5859 9.9307 28.1553C9.49889 27.7354 9.16585 27.2247 8.9557 26.6602C8.77857 26.2036 8.5657 25.5146 8.50882 24.2471C8.44707 22.8773 8.43407 22.4661 8.43407 18.9935C8.43407 15.5209 8.44707 15.113 8.50882 13.7431C8.56732 12.4756 8.77857 11.7866 8.95732 11.3284C9.19295 10.7222 9.4757 10.2884 9.9307 9.83337C10.3857 9.37838 10.8179 9.09725 11.4257 8.86162C11.8839 8.68288 12.5713 8.47163 13.8388 8.41313C15.0381 8.35788 15.5028 8.34162 17.9257 8.34V8.34325ZM26.0312 10.5012C25.8263 10.5012 25.6235 10.5416 25.4342 10.62C25.2449 10.6984 25.073 10.8133 24.9281 10.9582C24.7832 11.103 24.6683 11.275 24.5899 11.4643C24.5115 11.6535 24.4712 11.8564 24.4712 12.0613C24.4712 12.2661 24.5115 12.469 24.5899 12.6582C24.6683 12.8475 24.7832 13.0195 24.9281 13.1643C25.073 13.3092 25.2449 13.4241 25.4342 13.5025C25.6235 13.5809 25.8263 13.6213 26.0312 13.6213C26.4449 13.6213 26.8417 13.4569 27.1343 13.1643C27.4268 12.8718 27.5912 12.475 27.5912 12.0613C27.5912 11.6475 27.4268 11.2507 27.1343 10.9582C26.8417 10.6656 26.4449 10.5012 26.0312 10.5012ZM19.0924 12.3245C18.2069 12.3107 17.3275 12.4732 16.5054 12.8025C15.6833 13.1318 14.9349 13.6214 14.3038 14.2427C13.6727 14.864 13.1715 15.6047 12.8294 16.4215C12.4873 17.2384 12.3112 18.1152 12.3112 19.0008C12.3112 19.8864 12.4873 20.7632 12.8294 21.5801C13.1715 22.397 13.6727 23.1376 14.3038 23.7589C14.9349 24.3803 15.6833 24.8698 16.5054 25.1991C17.3275 25.5285 18.2069 25.6909 19.0924 25.6771C20.8451 25.6498 22.5167 24.9344 23.7464 23.6853C24.9761 22.4362 25.6654 20.7537 25.6654 19.0008C25.6654 17.248 24.9761 15.5654 23.7464 14.3163C22.5167 13.0673 20.8451 12.3518 19.0924 12.3245ZM19.0924 14.6661C19.6616 14.6661 20.2251 14.7782 20.7509 14.996C21.2768 15.2138 21.7545 15.5331 22.157 15.9355C22.5594 16.3379 22.8786 16.8157 23.0964 17.3415C23.3142 17.8673 23.4263 18.4309 23.4263 19C23.4263 19.5691 23.3142 20.1327 23.0964 20.6585C22.8786 21.1843 22.5594 21.6621 22.157 22.0645C21.7545 22.4669 21.2768 22.7862 20.7509 23.004C20.2251 23.2218 19.6616 23.3339 19.0924 23.3339C17.943 23.3339 16.8407 22.8773 16.0279 22.0645C15.2152 21.2518 14.7586 20.1494 14.7586 19C14.7586 17.8506 15.2152 16.7482 16.0279 15.9355C16.8407 15.1227 17.943 14.6661 19.0924 14.6661Z" fill="#FEF3FF"/>
</g>
<defs>
<clipPath id="clip0_25_232">
<rect width="26" height="26" fill="white" transform="translate(6 6)"/>
</clipPath>
</defs>
</svg>
