<svg width="39" height="39" viewBox="0 0 39 39" fill="none" xmlns="http://www.w3.org/2000/svg">
<rect width="39" height="39" rx="10" fill="#9E87B5"/>
<g clip-path="url(#clip0_25_235)">
<path d="M28.4141 9.59234C27.2224 8.38902 25.8029 7.43506 24.2386 6.78612C22.6742 6.13717 20.9963 5.80623 19.3027 5.81259C12.2064 5.81259 6.423 11.5943 6.4165 18.6923C6.4165 20.9657 7.01125 23.1773 8.13413 25.1355L6.3125 31.8126L13.144 30.0218C15.033 31.0525 17.1509 31.5917 19.3027 31.59H19.3092C26.4072 31.59 32.189 25.8082 32.1955 18.7037C32.1969 17.0106 31.8634 15.3338 31.2142 13.7701C30.5649 12.2064 29.6144 10.7865 28.4141 9.59234ZM19.3027 29.4092C17.3839 29.4077 15.5006 28.8914 13.8492 27.9142L13.4592 27.6802L9.4065 28.743L10.4887 24.7893L10.2352 24.3815C9.16244 22.6757 8.59505 20.7009 8.59887 18.6858C8.59887 12.7936 13.404 7.98684 19.3092 7.98684C20.7161 7.98432 22.1095 8.26029 23.4092 8.79884C24.7088 9.33739 25.889 10.1279 26.8818 11.1247C27.8777 12.1178 28.6673 13.2982 29.205 14.5979C29.7427 15.8975 30.0179 17.2907 30.0148 18.6972C30.0083 24.6106 25.2031 29.4092 19.3027 29.4092ZM25.1771 21.3915C24.857 21.2306 23.2759 20.4522 22.9785 20.3417C22.6827 20.2361 22.4666 20.1808 22.2554 20.5026C22.0392 20.8227 21.4218 21.5523 21.2365 21.762C21.0513 21.9781 20.8595 22.0025 20.5377 21.8432C20.2176 21.6807 19.1793 21.3427 17.9508 20.2426C16.992 19.3895 16.3501 18.3332 16.1584 18.0131C15.9731 17.6913 16.1405 17.5191 16.3014 17.3582C16.4427 17.2152 16.6215 16.9812 16.7824 16.796C16.9449 16.6107 16.9985 16.4742 17.1041 16.2597C17.2097 16.042 17.1594 15.8567 17.0798 15.6958C16.9985 15.535 16.3566 13.9473 16.0852 13.3071C15.8252 12.675 15.5604 12.7627 15.3621 12.7546C15.1769 12.7432 14.9608 12.7432 14.7446 12.7432C14.5814 12.7474 14.4209 12.7852 14.2729 12.8542C14.125 12.9233 13.993 13.0221 13.885 13.1446C13.5892 13.4663 12.7621 14.2447 12.7621 15.8323C12.7621 17.42 13.9159 18.9458 14.0784 19.162C14.2376 19.3781 16.3436 22.6265 19.5757 24.024C20.3395 24.3571 20.9408 24.5537 21.4104 24.7032C22.1823 24.9502 22.8794 24.9128 23.4351 24.8332C24.0526 24.739 25.338 24.0532 25.6094 23.3008C25.8759 22.5468 25.8759 21.9033 25.7946 21.7685C25.715 21.632 25.4989 21.5523 25.1771 21.3915Z" fill="#FEF3FF"/>
</g>
<defs>
<clipPath id="clip0_25_235">
<rect width="27" height="29" fill="white" transform="translate(5.5 4.5)"/>
</clipPath>
</defs>
</svg>
